<svg width="200" height="200" viewBox="0 0 200 200" fill="none" xmlns="http://www.w3.org/2000/svg">
  <defs>
    <linearGradient id="logoGradientDark" x1="0%" y1="0%" x2="0%" y2="100%">
      <stop offset="0%" stop-color="#FFA940" />
      <stop offset="50%" stop-color="#52C41A" />
      <stop offset="100%" stop-color="#13C2C2" />
    </linearGradient>
  </defs>
  
  <!-- Versão para fundo escuro -->
  <circle cx="100" cy="100" r="90" fill="url(#logoGradientDark)" opacity="0.9" />
  <circle cx="100" cy="100" r="75" fill="#0A1929" stroke="#0A1929" stroke-width="3" />
  <path d="M 100 50 C 95 50, 90 55, 90 60 C 90 65, 95 70, 100 70 C 105 70, 110 65, 110 60 C 110 55, 105 50, 100 50 Z" fill="#52C41A" />
  <path d="M 70 90 Q 65 85, 65 95 Q 65 110, 100 140 Q 135 110, 135 95 Q 135 85, 130 90 L 100 115 Z" fill="#52C41A" />
  <circle cx="100" cy="100" r="88" fill="none" stroke="#0A1929" stroke-width="6" />
</svg>
